<?xml version="1.0" encoding="utf-8"?>
<!-- Generator: Adobe Illustrator 22.1.0, SVG Export Plug-In . SVG Version: 6.00 Build 0)  -->
<svg version="1.1" id="レイヤー_1" xmlns="http://www.w3.org/2000/svg" xmlns:xlink="http://www.w3.org/1999/xlink" x="0px"
	 y="0px" viewBox="0 0 242.7 153" style="enable-background:new 0 0 242.7 153;" xml:space="preserve">
<style type="text/css">
	.st0{fill:#B1DDDD;}
	.st1{fill:#144847;}
	.st2{fill:none;stroke:#000000;stroke-width:0.3;}
</style>
<rect x="-5.7" y="-5.7" class="st0" width="254" height="164.3"/>
<g>
	<path class="st1" d="M80.6,28l6.5,0v5.8h3.5v4.8h-3.5v10.6c0,0-0.2,2.4,3.3,2v4.7c0,0-4.6,1.2-8-0.6c-1-0.5-1.6-2.2-1.7-4.2l0-12.4
		l-1.9,0v-4.8h1.9V28z"/>
	<path class="st1" d="M101.4,40.2C101.4,40.2,101.4,40.2,101.4,40.2L101.4,40.2L101.4,40.2z"/>
	<polygon class="st1" points="121.3,43.2 124.8,33.7 118.9,33.7 115.6,42.3 115.6,24.1 109.3,24.1 109.4,55.8 115.6,55.8 
		115.6,44.4 115.6,44.5 119.4,55.7 125.9,55.7 	"/>
	<path class="st1" d="M136.2,33.8l-2,18.2l0,0l-1.9-18.2h-6.4l2.9,22h4.6l0.1,0.5c-0.3,3.9-4.8,2.6-4.8,2.6v4.4
		c0.8,0.8,4.8,0.6,4.8,0.6c4.9-0.1,5.8-8,5.8-8l3.2-21.9L136.2,33.8z"/>
	<path class="st1" d="M78,58.5v12.4l-0.1-0.1c0.6-2.1,2.3-2.8,5-2.8c4.1,0,5.8,2.3,5.8,7.3v0.9v14.1h-2.9V76.2v-0.1
		c0-3.4-0.7-5.4-3.2-5.4c-2,0-3,0.6-3.6,1.6c-0.7,1-1,2.7-1,5.6v12.4l-2.9,0l0-31.8L78,58.5z"/>
	<path class="st1" d="M119.7,82.2l2.9,0l0,1.5c0,4.8-2.3,7.1-6.8,7.1c-2.9,0-4.8-0.8-5.8-2.3c-1.1-1.5-1.4-4.6-1.4-9.3
		c0-4.4,0.2-7,1.2-8.6c1-1.6,3-2.7,5.7-2.7c2.6,0,4.4,0.5,5.4,1.6c1.1,1.2,1.2,3.3,1.2,6.2l-2.8,0l0-0.8c0-1.7-0.2-2.4-0.7-3
		c-0.5-0.7-1.4-0.9-3.3-1c-1.8-0.1-2.3,0.4-3,1.4c-0.7,1-0.6,3.5-0.6,7.3c0,3.7,0,5.8,0.5,6.8c0.6,1,1.8,1.6,4,1.5
		c1.7-0.1,2-0.3,2.6-1C119.4,86.2,119.7,84.7,119.7,82.2"/>
	<path class="st1" d="M139.8,115l2.9,0l0,1.5c0,4.8-2.3,7.1-6.8,7.1c-2.9,0-4.8-0.8-5.8-2.3c-1.1-1.5-1.4-4.6-1.4-9.3
		c0-4.4,0.2-7,1.2-8.6c1-1.6,3-2.7,5.7-2.7c2.6,0,4.4,0.5,5.4,1.6c1.1,1.2,1.2,3.3,1.2,6.2l-2.8,0l0-0.8c0-1.7-0.2-2.4-0.7-3
		c-0.5-0.7-1.4-0.9-3.3-1c-1.8-0.1-2.3,0.4-3,1.4c-0.7,1-0.6,3.5-0.6,7.3c0,3.7,0,5.8,0.5,6.8c0.6,1,1.8,1.6,4,1.5
		c1.7-0.1,2-0.3,2.6-1C139.5,119,139.8,117.4,139.8,115"/>
	<polygon class="st1" points="127.1,58.6 127.1,77 128.4,77 134,68.5 137.1,68.5 130.6,78.3 138.4,90.3 135,90.3 128.4,79.9 
		127.1,79.9 127.1,90.3 124.3,90.3 124.3,58.6 	"/>
	<path class="st1" d="M150.3,83.4l2.6,0l0,1.1c0,2.3-0.5,3.9-1.6,4.8c-1,0.9-2.9,1.4-5.5,1.4c-3,0-4.9-0.8-6-2.2
		c-1.1-1.5-1.3-4.6-1.3-9.3c0-4.4,0.2-7.5,1.3-8.9c1.2-1.4,2.8-2.3,5.6-2.3c3.1,0,4.7,0.7,6,2c1.1,1.1,1.5,4,1.5,8.2V80l-11.4,0
		c0,3.5,0,5.5,0.5,6.4c0.6,1,1.6,1.4,3.7,1.4c1.9,0,2.8-0.2,3.4-0.7c0.6-0.5,0.7-0.3,1.1-2.2L150.3,83.4z M150.1,77.1v-0.7
		c0-2.4-0.2-3.8-0.7-4.5c-0.6-0.7-1.7-1.2-3.7-1.2c-2,0-2.9,0.6-3.5,1.4c-0.6,0.8-0.6,2.2-0.6,5L150.1,77.1z"/>
	<path class="st1" d="M156.2,116.2l2.6,0l0,1.1c0,2.3-0.5,3.9-1.6,4.8c-1,0.9-2.9,1.4-5.5,1.4c-3,0-4.9-0.8-6-2.2
		c-1.1-1.5-1.3-4.6-1.3-9.3c0-4.4,0.2-7.5,1.3-8.9c1.2-1.4,2.8-2.3,5.6-2.3c3.1,0,4.7,0.7,6,2c1.1,1.1,1.5,4.1,1.5,8.2v1.7l-11.4,0
		c0,3.5,0,5.5,0.5,6.4c0.6,1,1.6,1.4,3.7,1.4c1.9,0,2.8-0.2,3.4-0.7c0.6-0.5,0.7-0.3,1.1-2.2L156.2,116.2z M156.1,109.8v-0.7
		c0-2.4-0.2-3.8-0.7-4.5c-0.6-0.7-1.7-1.2-3.7-1.2c-2,0-2.9,0.6-3.5,1.4c-0.6,0.8-0.6,2.2-0.6,5L156.1,109.8z"/>
	<path class="st1" d="M154.5,68.4h2.8l0,2.7l0,0c0.9-2.1,2.8-3.3,5-3.2c3.4,0.2,4.5,2.1,4.5,6.4l0,1.5h-2.7l0-0.5c0-0.6,0-1.2,0-1.4
		c-0.2-2.3-0.6-3.1-2.4-3.2c-2.6-0.1-4,2.2-4,6.7v12.9h-3.2L154.5,68.4z"/>
	<path class="st1" d="M110.8,103.1c-0.9-1.5-2.4-2.2-4.9-2.2c-2.3,0-4.2,1.5-5.1,2.8v-2.5h-2.5v29.9h2.5v-11.5
		c0.2,0.6,0.4,1.1,0.6,1.5c0.8,1.5,2.4,2.2,4.9,2.2c2.4,0,3.6-0.8,4.5-2.1c1.1-1.7,1.3-4.3,1.3-8.7
		C112,107.7,111.7,104.5,110.8,103.1 M108.4,119.1c-0.5,1.1-1.6,1.6-3.2,1.6c-1.7,0-2.8-0.6-3.4-1.7c-0.6-1.1-0.8-3.4-0.8-6.7
		c0-3.6,0.4-6,0.9-7.1c0.5-1.1,1.5-1.6,3.2-1.6c1.7,0,2.7,0.5,3.3,1.6c0.6,1.1,0.6,3.5,0.6,7.3C109.1,115.8,109,118,108.4,119.1"/>
	<path class="st1" d="M117.3,107.2l-2.9,0c0-2.6,0-3.9,1.2-5c0.9-0.8,2.9-1.4,5.3-1.4c2.6,0,4.3,0.6,5.2,1.7
		c0.9,1.1,1.1,3.2,1.1,6.2v14.5l-2.8-0.1v-2.3v0.1c-0.3,1.8-2.6,2.6-5.3,2.6c-4,0-5.3-2.2-5.3-6.7c0-2.7,0.3-4.6,1.2-5.6
		c0.9-1,2.4-1.8,4.8-1.8c2.8,0,4.2,0.4,4.8,1.9l0-2.4c0-2.5,0-3.6-0.5-4.3c-0.5-0.7-1.4-1.1-3.1-1.1c-2.8,0-3.5,0.6-3.5,2.8
		C117.3,106.4,117.3,106.9,117.3,107.2 M120.4,112.3c-1.8,0-2.5,0.2-3,0.8c-0.6,0.8-0.7,1.8-0.7,3.5c0,1.8,0.1,2.2,0.7,3.2
		c0.4,0.7,1.2,1.1,2.8,1.1c3.3,0,4.3-1.4,4.3-4.2c0-1.7,0.1-2.6-0.5-3.3C123.4,112.7,122.2,112.3,120.4,112.3"/>
	<path class="st1" d="M93.5,107c0,0,0.2-1.8-0.6-2.7c0,0-0.4-1-3-0.7c0,0-2.6,0-3,0.6c0,0-0.6,0.7-0.7,2.8c0,0-0.1,2.2,0.9,2.7
		c0,0,1.7,0.8,2.7,0.9c0,0,0.1,0,0.1,0c1.1,0.1,2.8,0.4,3.6,0.6c0,0,1.6,0.5,1.9,1c0,0,0.9,0.6,1.1,2.8v3.7c0,0,0.1,2.3-1.2,3.5
		c0,0-1.2,1.1-3.6,1.3h-4.1c0,0-2.2,0-3.4-1.1c0,0-1-0.8-1.2-2.9v-3.4h2.8v1.7c0,0,0,2,0.4,2.2c0,0,0.5,0.8,2,0.8c0,0,0.1,0,0.1,0
		h2.4c0,0,1.9,0,2.4-0.7c0,0,0.4-0.3,0.5-1.7v-2.2c0,0,0.1-1.4-0.8-2c0,0-0.8-0.7-2.8-1.1c0,0-2.7-0.5-4.1-0.8c0,0-1.4-0.2-2.2-1.3
		c0,0-0.5-0.5-0.5-2.6V106c0,0-0.1-2.5,1.2-3.7c1.3-1.2,3.1-1.4,4-1.4h2.8c0,0,2.4-0.1,3.5,0.8c1.1,0.9,1.5,2.1,1.5,5.2L93.5,107z"
		/>
	<path class="st1" d="M107.9,48.8l0-7.8c0.5-8.1-6.7-7.6-6.7-7.6l-3,0c-7.5-0.3-6.9,7.3-6.9,7.3l0,7.8c-0.4,6.9,4.7,7.5,6.3,7.6
		l-1,10c0,0-0.2,1.2,0.1,1.6c0,0,0.3,0.6,2.7,0.8h0.1c2.4-0.2,2.7-0.8,2.7-0.8c0.3-0.4,0.1-1.6,0.1-1.6l-1-10
		C108.6,56.2,107.9,48.8,107.9,48.8 M97.9,40.2c0-1.9,1-1.9,1-1.9l1.4,0c1.1,0.1,1.1,1.7,1.1,1.9l0,9.4c0,1.9-1,1.8-1,1.8l-1.4,0
		c-1.2,0.1-1.1-1.8-1.1-1.8L97.9,40.2z"/>
	<path class="st1" d="M99.5,69.4c0,0-2.6,0.1-4-0.4c0,0-1-0.2-2-0.7l0.8,4.8c0,0,3.2-1,5.1-0.8h0.2c1.9-0.2,5.1,0.8,5.1,0.8l0.8-4.8
		c-1,0.5-2,0.7-2,0.7C102.1,69.5,99.4,69.4,99.5,69.4"/>
	<path class="st1" d="M99.4,73.6C99.4,73.6,99.5,73.6,99.4,73.6C99.5,73.6,99.5,73.6,99.4,73.6L99.4,73.6z"/>
	<path class="st1" d="M106.2,88.6c-3.2-8.2-3.1-14.6-3.1-14.6c-0.8-0.2-3.5-0.4-3.6-0.4c-0.1,0-2.9,0.1-3.6,0.4
		c0,0,0.1,6.4-3.1,14.6c0,0-3.6,9.1-4.4,9.7l3.8,0c0,0,0.4-7.3,7.2-7.3h0.2c6.8,0,7.2,7.3,7.2,7.3l3.8,0
		C109.8,97.6,106.2,88.6,106.2,88.6 M99.5,89.4c-2,0-3.6-1.6-3.6-3.6c0-2,1.6-3.6,3.6-3.6c2,0,3.6,1.6,3.6,3.6
		C103.1,87.8,101.4,89.4,99.5,89.4"/>
	<path class="st1" d="M159.7,41c0.5-8.1-6.7-7.6-6.7-7.6l-3,0c-7.5-0.3-6.9,7.3-6.9,7.3l0,7.8c-0.5,8.1,6.7,7.6,6.7,7.6l3,0
		c7.5,0.3,6.9-7.3,6.9-7.3L159.7,41z M152.1,51.3l-1.4,0c-1.2,0.1-1.1-1.8-1.1-1.8l0-9.3c0-1.9,1-1.9,1-1.9l1.4,0
		c1.2,0.1,1.1,1.7,1.1,1.9l0,9.4C153.2,51.4,152.1,51.3,152.1,51.3"/>
	<path class="st1" d="M153.2,40.2C153.2,40.2,153.2,40.2,153.2,40.2L153.2,40.2L153.2,40.2z"/>
</g>
<g>
	<g>
		<polyline class="st2" points="-34,153 -8.5,153 -8.5,187 		"/>
		<polyline class="st2" points="0,187 0,161.5 -34,161.5 		"/>
	</g>
	<g>
		<polyline class="st2" points="-34,0 -8.5,0 -8.5,-34 		"/>
		<polyline class="st2" points="0,-34 0,-8.5 -34,-8.5 		"/>
	</g>
	<g>
		<polyline class="st2" points="276.7,0 251.2,0 251.2,-34 		"/>
		<polyline class="st2" points="242.7,-34 242.7,-8.5 276.7,-8.5 		"/>
	</g>
	<g>
		<polyline class="st2" points="276.7,153 251.2,153 251.2,187 		"/>
		<polyline class="st2" points="242.7,187 242.7,161.5 276.7,161.5 		"/>
	</g>
	<g>
		<line class="st2" x1="-36" y1="76.5" x2="-12" y2="76.5"/>
		<line class="st2" x1="-18" y1="40.5" x2="-18" y2="112.5"/>
	</g>
	<g>
		<line class="st2" x1="278.7" y1="76.5" x2="254.7" y2="76.5"/>
		<line class="st2" x1="260.7" y1="112.5" x2="260.7" y2="40.5"/>
	</g>
	<g>
		<line class="st2" x1="85.3" y1="-18" x2="157.3" y2="-18"/>
		<line class="st2" x1="121.3" y1="-36" x2="121.3" y2="-12"/>
	</g>
	<g>
		<line class="st2" x1="157.3" y1="171" x2="85.3" y2="171"/>
		<line class="st2" x1="121.3" y1="189" x2="121.3" y2="165"/>
	</g>
</g>
</svg>
