<svg id="New_Logo" data-name="New Logo" xmlns="http://www.w3.org/2000/svg" width="579.27" height="700.31" viewBox="0 0 579.27 700.31">
  <defs>
    <style>
      .cls-1, .cls-2, .cls-5, .cls-6 {
        font-size: 262px;
      }

      .cls-1, .cls-2, .cls-4, .cls-5, .cls-6 {
        fill: #231f20;
      }

      .cls-1, .cls-6 {
        font-family: Square721BT-RomanCondensed, Square721 Cn BT;
      }

      .cls-1 {
        letter-spacing: -0.04em;
      }

      .cls-2, .cls-5 {
        font-family: Square721BT-BoldCondensed, Square721 Cn BT;
        font-weight: 700;
      }

      .cls-2 {
        letter-spacing: -0.02em;
      }

      .cls-3, .cls-5 {
        letter-spacing: -0.03em;
      }

      .cls-6 {
        letter-spacing: -0.05em;
      }
    </style>
  </defs>
  <title>THS_Logo_1</title>
  <text class="cls-1" transform="translate(0 436.17)">h</text>
  <text class="cls-2" transform="translate(216.64 225.97)">k<tspan class="cls-3" x="107.25" y="0">yo</tspan></text>
  <path class="cls-4" d="M218.42,245.2l0-48c2.92-49.76-41.27-46.42-41.27-46.42l-18.35.28c-46.28-1.67-42.11,44.75-42.11,44.75l0,48c-2.47,42.19,28.93,46.2,38.53,46.44l-6.4,61.1s-1.25,7.5.63,9.79c0,0,1.67,3.76,16.68,4.8H167c15-1,16.68-4.8,16.68-4.8,1.87-2.29.62-9.79.62-9.79L177.91,290c44.58.55,40.51-44.78,40.51-44.78m-61.66-52.47c0-11.53,6.42-11.75,6.42-11.75l8.84,0c7,.49,6.56,10.57,6.51,11.37l.05,57.4c0,11.53-6.43,10.91-6.43,10.91h-8.84c-7.34.32-6.53-11-6.53-11Z" transform="translate(-1.48 -62.07)"/>
  <text class="cls-5" transform="translate(33.76 225.97)">t</text>
  <path class="cls-4" d="M131,366.31a182.84,182.84,0,0,0,73.1,0q-2.37,14.73-4.73,29.47a183.54,183.54,0,0,0-63.65,0Q133.35,381,131,366.31" transform="translate(-1.48 -62.07)"/>
  <text class="cls-6" transform="translate(52.93 638.52)">space</text>
  <text class="cls-1" transform="translate(208.82 437.17)">cker</text>
  <path class="cls-4" d="M208.17,489.28c-19.87-50-19.32-89.36-19.32-89.36-4.69-1.43-21.54-2.26-22.27-2.29s-17.58.86-22.27,2.29c0,0,.56,39.33-19.31,89.36,0,0-22.1,55.59-26.83,59.34l23.21-.14s2.5-44.75,44.47-45h1.46c42,.28,44.48,45,44.48,45l23.2.14c-4.72-3.75-26.82-59.34-26.82-59.34m-41.59,5.28a22.1,22.1,0,1,1,22.1-22.1,22.09,22.09,0,0,1-22.1,22.1" transform="translate(-1.48 -62.07)"/>
</svg>
