<?xml version="1.0" encoding="utf-8"?>
<!-- Generator: Adobe Illustrator 13.0.0, SVG Export Plug-In . SVG Version: 6.00 Build 14948)  -->
<!DOCTYPE svg PUBLIC "-//W3C//DTD SVG 1.1//EN" "http://www.w3.org/Graphics/SVG/1.1/DTD/svg11.dtd">
<svg version="1.1" id="レイヤー_1" xmlns="http://www.w3.org/2000/svg" xmlns:xlink="http://www.w3.org/1999/xlink" x="0px"
	 y="0px" width="273.2px" height="273.2px" viewBox="0 0 273.2 273.2" enable-background="new 0 0 273.2 273.2"
	 xml:space="preserve">
<g>
	<path fill="#333333" d="M109.215,182.437c-2.884,0-4.907,0.854-6.065,2.569c-1.16,1.714-1.738,4.898-1.738,9.562v6.14
		c0,4.637,0.578,7.812,1.738,9.523c1.158,1.714,3.182,2.568,6.065,2.568c2.417,0,4.118-0.861,5.104-2.588
		c0.985-1.727,1.479-4.818,1.479-9.283v-6.582c0-4.489-0.494-7.596-1.479-9.32C113.333,183.299,111.632,182.437,109.215,182.437z"/>
	<circle fill="#333333" cx="98.733" cy="151.172" r="6.399"/>
	<path fill="#333333" d="M136.025,197.452c-2.736,0-4.572,0.547-5.51,1.646c-0.937,1.096-1.406,3.297-1.406,6.601
		c0,2.663,0.487,4.558,1.461,5.679c0.976,1.123,2.584,1.684,4.828,1.684c2.737,0,4.672-0.612,5.806-1.832
		c1.135-1.223,1.7-3.35,1.7-6.38c0-2.908-0.476-4.87-1.424-5.881S138.713,197.452,136.025,197.452z"/>
	<path fill="#333333" d="M191.02,182.286c-2.885,0-4.863,0.637-5.936,1.905c-1.072,1.271-1.607,3.669-1.607,7.194v2.404h15.125
		v-2.404c0-3.551-0.537-5.955-1.607-7.211C195.922,182.917,193.93,182.286,191.02,182.286z"/>
	<path fill="#333333" d="M188.139,133.382c0-3.55-0.536-5.955-1.607-7.211c-1.072-1.258-3.062-1.889-5.975-1.889
		c-2.885,0-4.863,0.637-5.936,1.906c-1.072,1.271-1.607,3.668-1.607,7.193v2.404h15.125V133.382z"/>
	<path fill="#333333" d="M0,0v273.2h273.2V0H0z M175.749,73.86c0-5.966,1.012-10.011,3.031-12.133
		c2.023-2.119,5.905-3.178,11.651-3.178c5.721,0,9.599,1.059,11.632,3.178c2.035,2.122,3.051,6.167,3.051,12.133v9.615
		c0,5.918-1.011,9.931-3.031,12.04c-2.022,2.106-5.904,3.161-11.65,3.161s-9.629-1.047-11.65-3.146
		c-2.021-2.095-3.031-6.114-3.031-12.057V73.86H175.749z M174.493,152.743c0.984,1.221,2.959,1.831,5.918,1.831
		c3.106,0,5.221-0.454,6.342-1.37c1.125-0.912,1.686-2.601,1.686-5.065v-1.22h4.548v1.295c0,3.992-0.979,6.871-2.94,8.635
		c-1.959,1.763-5.172,2.646-9.635,2.646c-4.658,0-7.934-1.134-9.82-3.402c-1.885-2.271-2.828-6.252-2.828-11.945v-9.1
		c0-5.696,0.938-9.672,2.812-11.928c1.873-2.256,5.178-3.383,9.909-3.383c4.687,0,7.954,1.121,9.804,3.365
		c1.848,2.244,2.772,6.225,2.772,11.945v5.51h-20.045v3.662C173.014,148.681,173.504,151.522,174.493,152.743z M156.485,59.214
		l3.479,33.174l3.81-33.174h10.8l-5.363,36.061c-1.035,6.928-2.446,11.488-4.233,13.684c-1.788,2.193-4.567,3.292-8.341,3.292
		c-0.887,0-1.838-0.081-2.85-0.241c-1.011-0.159-2.132-0.413-3.365-0.757v-7.88c0.617,0.172,1.172,0.299,1.664,0.371
		c0.494,0.074,0.926,0.111,1.297,0.111c1.627,0,2.879-0.482,3.754-1.443s1.387-2.429,1.533-4.4h-8.321l-5.067-38.797L156.485,59.214
		L156.485,59.214z M116.278,42.128h10.911v32.693l5.842-15.607H143.5l-6.217,16.605l8.246,22.191h-11.61l-6.731-20.379V98.01
		h-10.911V42.128z M114.913,135.046c0-5.696,0.937-9.672,2.812-11.928c1.874-2.256,5.178-3.383,9.911-3.383
		c3.97,0,6.817,0.883,8.543,2.645c1.728,1.764,2.592,4.666,2.592,8.708v1.925h-4.92v-0.703c0-2.785-0.507-4.76-1.517-5.918
		c-1.011-1.156-2.749-1.738-5.215-1.738c-2.736,0-4.581,0.631-5.529,1.887c-0.949,1.256-1.424,4.093-1.424,8.506v9.172
		c0,4.389,0.491,7.224,1.478,8.507c0.986,1.28,2.887,1.923,5.696,1.923c2.762,0,4.654-0.572,5.677-1.719s1.537-3.396,1.537-6.75
		v-1.518h5.067v1.592c0,4.66-0.953,8.031-2.851,10.115c-1.898,2.082-4.969,3.125-9.21,3.125c-4.684,0-7.963-1.13-9.837-3.386
		c-1.876-2.255-2.812-6.243-2.812-11.963L114.913,135.046L114.913,135.046z M98.792,127.421h-0.125
		c-4.057,0.014-6.943,0.531-8.986,1.319l-1.434-8.415h0.089c2.053,1.123,5.288,1.924,10.331,1.934h0.125
		c5.048-0.01,8.28-0.811,10.336-1.934h0.091l-1.434,8.417C105.74,127.952,102.853,127.435,98.792,127.421z M105.218,130.451H92.254
		l0.021-0.162c1.933-0.436,4.128-0.684,6.462-0.684c2.33,0,4.523,0.248,6.458,0.684L105.218,130.451z M92.212,130.474h13.035
		c0,18.93,13.033,42.593,13.033,42.593h-6.516c0,0,0-12.872-13.032-12.872c-13.033,0-13.033,12.872-13.033,12.872h-6.516
		C79.184,173.066,92.212,149.403,92.212,130.474z M84.306,73.86c0-5.966,1.01-10.011,3.031-12.133
		c2.023-2.119,5.905-3.178,11.651-3.178c5.721,0,9.599,1.059,11.632,3.178c2.035,2.122,3.051,6.167,3.051,12.133v9.615
		c0,5.918-1.011,9.931-3.031,12.04c-1.654,1.722-4.571,2.729-8.711,3.043l1.907,19.827c0,0.02,0.013,0.031,0.013,0.051
		c0,0.008-0.005,0.018-0.008,0.025l0.008,0.053c-0.008-0.002-0.013-0.002-0.02-0.004c-0.106,1.006-2.341,1.807-5.097,1.807
		c-2.759,0-4.991-0.801-5.097-1.807c-0.008,0-0.016,0.002-0.02,0.004l0.002-0.057c0-0.006-0.002-0.014-0.002-0.021
		c0-0.018,0.01-0.029,0.01-0.041l1.913-19.875c-3.872-0.355-6.616-1.344-8.202-2.988c-2.021-2.095-3.031-6.114-3.031-12.057
		L84.306,73.86L84.306,73.86z M62.085,59.214h3.402V48.932h11.28v10.282h6.362v8.506h-6.362v18.087c0,1.478,0.339,2.557,1.018,3.235
		c0.679,0.678,1.756,1.018,3.235,1.018c0.371,0,0.654-0.007,0.851-0.02c0.197-0.013,0.384-0.029,0.556-0.054l0.037,8.319
		c-1.16,0.172-2.237,0.31-3.235,0.408c-1.001,0.099-1.918,0.147-2.756,0.147c-4.241,0-7.133-0.781-8.674-2.348
		c-1.542-1.566-2.312-4.753-2.312-9.562V67.72h-3.402V59.214z M62.446,127.132c-1.222,1.947-1.831,5.338-1.831,10.171v21.523h-4.92
		v-55.883h4.92v21.338c1.035-1.574,2.281-2.729,3.734-3.455c1.455-0.729,3.219-1.092,5.291-1.092c3.572,0,6.144,1.029,7.71,3.088
		c1.563,2.062,2.348,5.479,2.348,10.264v25.74h-4.919v-24.373c0-3.846-0.468-6.516-1.404-8.008c-0.939-1.49-2.542-2.236-4.809-2.236
		C65.707,124.21,63.666,125.185,62.446,127.132z M93.534,208.731c0,2.96-0.831,5.16-2.496,6.604
		c-1.664,1.44-4.211,2.164-7.639,2.164h-4.327c-3.55,0-6.004-0.643-7.36-1.922c-1.355-1.285-2.034-3.64-2.034-7.066v-3.956h4.847
		v2.364c0,2.566,0.344,4.218,1.035,4.957c0.688,0.739,2.008,1.108,3.955,1.108h3.403c2.023,0,3.441-0.36,4.256-1.089
		c0.812-0.729,1.219-1.992,1.219-3.791v-3.627c0-2.712-2.232-4.426-6.694-5.141c-0.765-0.123-1.357-0.223-1.775-0.295
		c-4.462-0.766-7.213-1.629-8.248-2.59c-1.035-0.962-1.554-2.553-1.554-4.771v-5.141c0-2.982,0.838-5.195,2.515-6.64
		c1.677-1.444,4.229-2.163,7.656-2.163h3.402c3.553,0,6.004,0.643,7.361,1.922c1.357,1.284,2.033,3.651,2.033,7.104v1.588h-4.844
		v-1.071c0-1.874-0.371-3.175-1.111-3.902c-0.737-0.728-2.033-1.092-3.882-1.092h-2.515c-2.023,0-3.436,0.353-4.236,1.055
		c-0.802,0.703-1.2,1.943-1.2,3.719v3.697c0,2.022,2.525,3.402,7.58,4.144c1.382,0.198,2.479,0.358,3.292,0.481
		c2.638,0.418,4.526,1.257,5.66,2.516c1.133,1.256,1.701,3.156,1.701,5.693V208.731z M121.014,201.151
		c0,5.895-0.813,10.09-2.441,12.594c-1.628,2.502-4.29,3.754-7.988,3.754c-1.999,0-3.767-0.4-5.308-1.203
		c-1.542-0.801-2.83-2.016-3.865-3.644v18.42h-4.92v-52.631h4.623v4.548c1.233-1.824,2.62-3.154,4.162-3.994
		c1.541-0.836,3.358-1.257,5.455-1.257c3.698,0,6.336,1.312,7.914,3.938c1.579,2.626,2.368,7.145,2.368,13.557V201.151
		L121.014,201.151z M147.604,216.833h-4.848v-3.478c-0.861,1.505-2.008,2.584-3.439,3.235c-1.43,0.654-3.365,0.98-5.806,0.98
		c-3.204,0-5.596-0.802-7.174-2.404c-1.579-1.604-2.368-4.057-2.368-7.36v-5.142c0-3.229,0.863-5.677,2.589-7.342
		c1.726-1.664,4.254-2.494,7.582-2.494c2.073,0,3.804,0.271,5.196,0.812c1.394,0.541,2.533,1.379,3.42,2.516v-5.992
		c0-3.278-0.438-5.426-1.312-6.437s-2.631-1.517-5.268-1.517c-2.171,0-3.713,0.375-4.625,1.127
		c-0.912,0.754-1.369,1.992-1.369,3.719v1.812h-5.064v-1.738c0-3.305,0.899-5.721,2.699-7.25c1.8-1.526,4.659-2.291,8.581-2.291
		c4.24,0,7.169,0.806,8.785,2.422c1.611,1.615,2.422,4.566,2.422,8.857v27.963H147.604z M147.497,140.556v18.271h-4.92v-55.883h4.92
		v32.547h2.33l9.877-15.053h5.361l-11.354,17.271l13.609,21.117h-5.807l-11.688-18.271H147.497z M175.268,204.256
		c0,4.662-0.949,8.033-2.848,10.117c-1.902,2.082-4.971,3.125-9.211,3.125c-4.687,0-7.965-1.129-9.838-3.386
		c-1.873-2.255-2.812-6.243-2.812-11.964v-9.1c0-5.696,0.939-9.672,2.812-11.93c1.873-2.255,5.178-3.383,9.912-3.383
		c3.969,0,6.815,0.883,8.541,2.646c1.727,1.763,2.592,4.666,2.592,8.707v1.926h-4.922v-0.703c0-2.785-0.502-4.76-1.515-5.918
		c-1.015-1.157-2.75-1.738-5.22-1.738c-2.731,0-4.577,0.631-5.524,1.887c-0.948,1.256-1.428,4.094-1.428,8.506v9.174
		c0,4.389,0.498,7.224,1.479,8.507c0.988,1.281,2.887,1.923,5.699,1.923c2.76,0,4.652-0.572,5.674-1.719
		c1.023-1.146,1.535-3.396,1.535-6.751v-1.517h5.07v1.59H175.268z M203.522,198.56h-20.045v3.663c0,4.463,0.49,7.305,1.477,8.523
		c0.986,1.223,2.961,1.832,5.918,1.832c3.107,0,5.224-0.455,6.344-1.369c1.123-0.912,1.685-2.602,1.685-5.066v-1.221h4.55v1.297
		c0,3.992-0.98,6.871-2.941,8.634c-1.959,1.765-5.172,2.646-9.635,2.646c-4.658,0-7.935-1.133-9.818-3.401
		c-1.887-2.271-2.83-6.252-2.83-11.946v-9.1c0-5.696,0.936-9.672,2.812-11.93c1.873-2.254,5.178-3.383,9.91-3.383
		c4.686,0,7.952,1.121,9.803,3.365c1.848,2.245,2.772,6.227,2.772,11.946L203.522,198.56L203.522,198.56z M217.504,133.16h-4.549
		v-1.812c0-2.688-0.371-4.588-1.111-5.695c-0.737-1.109-1.983-1.666-3.733-1.666c-2.59,0-4.435,0.783-5.528,2.348
		c-1.098,1.566-1.646,4.322-1.646,8.267v24.227h-4.919v-38.39h4.548v4.992c0.912-1.947,2.104-3.385,3.57-4.309
		c1.465-0.926,3.271-1.387,5.418-1.387c2.811,0,4.839,0.82,6.082,2.457c1.246,1.641,1.869,4.311,1.869,8.008V133.16z"/>
	<path fill="#333333" d="M190.431,90.134c1.231,0,2.058-0.261,2.479-0.777c0.418-0.519,0.629-1.541,0.629-3.07V71.049
		c0-1.555-0.205-2.589-0.609-3.105c-0.408-0.519-1.239-0.777-2.498-0.777c-1.258,0-2.104,0.266-2.532,0.794
		c-0.433,0.531-0.649,1.562-0.649,3.089v15.237c0,1.529,0.209,2.552,0.631,3.07C188.297,89.873,189.148,90.134,190.431,90.134z"/>
	<path fill="#333333" d="M98.989,90.134c1.23,0,2.058-0.261,2.479-0.777c0.418-0.519,0.629-1.541,0.629-3.07V71.049
		c0-1.555-0.204-2.589-0.609-3.105c-0.408-0.519-1.239-0.777-2.498-0.777c-1.257,0-2.103,0.266-2.532,0.794
		c-0.433,0.531-0.649,1.562-0.649,3.089v15.237c0,1.529,0.209,2.552,0.63,3.07C96.855,89.873,97.706,90.134,98.989,90.134z"/>
	<path fill="#FFFFFF" d="M92.276,130.289l-0.021,0.162h12.964l-0.021-0.162c-1.936-0.436-4.128-0.684-6.458-0.684
		C96.404,129.605,94.208,129.854,92.276,130.289z"/>
</g>
</svg>
