<?xml version="1.0" encoding="utf-8"?>
<!-- Generator: Adobe Illustrator 13.0.0, SVG Export Plug-In . SVG Version: 6.00 Build 14948)  -->
<!DOCTYPE svg PUBLIC "-//W3C//DTD SVG 1.1//EN" "http://www.w3.org/Graphics/SVG/1.1/DTD/svg11.dtd">
<svg version="1.1" id="レイヤー_1" xmlns="http://www.w3.org/2000/svg" xmlns:xlink="http://www.w3.org/1999/xlink" x="0px"
	 y="0px" width="273.2px" height="273.2px" viewBox="0 0 273.2 273.2" enable-background="new 0 0 273.2 273.2"
	 xml:space="preserve">
<rect fill="#333333" width="273.2" height="273.2"/>
<path fill="#FFFFFF" d="M190.431,98.677c5.745,0,9.628-1.055,11.651-3.161c2.021-2.109,3.031-6.122,3.031-12.04V73.86
	c0-5.966-1.017-10.011-3.052-12.133c-2.033-2.119-5.911-3.178-11.632-3.178c-5.746,0-9.629,1.059-11.651,3.178
	c-2.021,2.122-3.03,6.167-3.03,12.133v9.615c0,5.942,1.01,9.962,3.03,12.057C180.803,97.63,184.685,98.677,190.431,98.677z
	 M187.25,71.049c0-1.527,0.217-2.558,0.648-3.089c0.43-0.528,1.275-0.794,2.532-0.794c1.259,0,2.09,0.259,2.498,0.777
	c0.405,0.517,0.608,1.551,0.608,3.105v15.237c0,1.529-0.211,2.552-0.629,3.07c-0.421,0.517-1.246,0.777-2.479,0.777
	c-1.283,0-2.135-0.261-2.553-0.777c-0.42-0.519-0.629-1.541-0.629-3.07V71.049H187.25z M158.668,98.011
	c-0.147,1.972-0.66,3.439-1.535,4.4s-2.127,1.443-3.754,1.443c-0.371,0-0.801-0.037-1.295-0.111
	c-0.492-0.072-1.049-0.199-1.666-0.371v7.88c1.234,0.344,2.355,0.598,3.367,0.757c1.01,0.16,1.961,0.241,2.85,0.241
	c3.771,0,6.552-1.099,8.34-3.292c1.787-2.195,3.197-6.756,4.232-13.684l5.365-36.061h-10.801l-3.809,33.174l-3.479-33.174h-11.206
	l5.066,38.797L158.668,98.011L158.668,98.011z M65.488,86.952c0,4.809,0.77,7.995,2.312,9.562c1.541,1.566,4.433,2.348,8.674,2.348
	c0.838,0,1.755-0.049,2.756-0.147c0.998-0.099,2.075-0.236,3.235-0.408l-0.037-8.319c-0.172,0.024-0.358,0.041-0.556,0.054
	c-0.196,0.013-0.479,0.02-0.851,0.02c-1.479,0-2.557-0.339-3.235-1.018c-0.678-0.679-1.018-1.758-1.018-3.235V67.72h6.362v-8.506
	h-6.362V48.932h-11.28v10.282h-3.402v8.506h3.402V86.952z M127.189,77.632l6.731,20.379h11.609l-8.245-22.191l6.215-16.605H133.03
	l-5.842,15.607V42.128h-10.911v55.883h10.911L127.189,77.632L127.189,77.632z M95.539,98.52l-1.913,19.875
	c0,0.012-0.01,0.023-0.01,0.041c0,0.008,0.002,0.016,0.002,0.021l-0.002,0.057c0.004-0.002,0.012-0.004,0.02-0.004
	c0.105,1.006,2.338,1.807,5.097,1.807c2.756,0,4.99-0.801,5.097-1.807c0.007,0.002,0.012,0.002,0.02,0.004l-0.008-0.053
	c0.003-0.008,0.008-0.018,0.008-0.025c0-0.02-0.013-0.031-0.013-0.051l-1.907-19.827c4.14-0.315,7.057-1.322,8.711-3.043
	c2.021-2.109,3.031-6.122,3.031-12.04V73.86c0-5.966-1.016-10.011-3.051-12.133c-2.033-2.119-5.911-3.178-11.632-3.178
	c-5.746,0-9.628,1.059-11.651,3.178c-2.021,2.122-3.031,6.167-3.031,12.133v9.615c0,5.942,1.01,9.962,3.031,12.057
	C88.923,97.176,91.667,98.165,95.539,98.52z M95.807,71.049c0-1.527,0.217-2.558,0.649-3.089c0.43-0.528,1.275-0.794,2.532-0.794
	c1.259,0,2.09,0.259,2.498,0.777c0.405,0.517,0.609,1.551,0.609,3.105v15.237c0,1.529-0.211,2.552-0.629,3.07
	c-0.421,0.517-1.247,0.777-2.479,0.777c-1.283,0-2.134-0.261-2.552-0.777c-0.421-0.519-0.63-1.541-0.63-3.07V71.049H95.807z
	 M85.7,173.066c0,0,0-12.872,13.033-12.872c13.032,0,13.032,12.872,13.032,12.872h6.516c0,0-13.033-23.663-13.033-42.593H92.212
	c0,18.93-13.028,42.593-13.028,42.593H85.7z M98.733,144.772c3.532,0,6.396,2.863,6.396,6.398c0,3.533-2.864,6.399-6.396,6.399
	c-3.533,0-6.397-2.866-6.397-6.399C92.335,147.636,95.2,144.772,98.733,144.772z M92.276,130.289l-0.021,0.162h12.964l-0.021-0.162
	c-1.936-0.436-4.128-0.684-6.458-0.684C96.404,129.605,94.208,129.854,92.276,130.289z M109.218,120.325h-0.091
	c-2.056,1.123-5.288,1.924-10.336,1.934h-0.125c-5.043-0.01-8.278-0.811-10.331-1.934h-0.089l1.434,8.415
	c2.043-0.788,4.93-1.306,8.986-1.319h0.125c4.062,0.014,6.948,0.531,8.993,1.321L109.218,120.325z M73.375,126.446
	c0.937,1.492,1.404,4.162,1.404,8.008v24.373h4.919v-25.74c0-4.784-0.784-8.203-2.348-10.264c-1.566-2.059-4.138-3.088-7.71-3.088
	c-2.072,0-3.836,0.363-5.291,1.092c-1.453,0.727-2.699,1.881-3.734,3.455v-21.338h-4.92v55.883h4.92v-21.523
	c0-4.833,0.609-8.224,1.831-10.171c1.22-1.947,3.261-2.922,6.12-2.922C70.833,124.21,72.435,124.956,73.375,126.446z
	 M127.562,159.493c4.241,0,7.312-1.043,9.21-3.125c1.896-2.084,2.85-5.455,2.85-10.115v-1.592h-5.066v1.519
	c0,3.353-0.514,5.603-1.537,6.75c-1.022,1.146-2.915,1.719-5.677,1.719c-2.81,0-4.71-0.642-5.696-1.923
	c-0.986-1.283-1.478-4.118-1.478-8.507v-9.172c0-4.413,0.475-7.25,1.424-8.506c0.948-1.256,2.793-1.887,5.529-1.887
	c2.466,0,4.204,0.582,5.215,1.738c1.01,1.158,1.517,3.133,1.517,5.918v0.703h4.92v-1.925c0-4.042-0.865-6.944-2.592-8.708
	c-1.726-1.762-4.573-2.645-8.543-2.645c-4.733,0-8.037,1.127-9.911,3.383c-1.876,2.256-2.812,6.231-2.812,11.928v9.1
	c0,5.72,0.937,9.708,2.812,11.963C119.599,158.364,122.878,159.493,127.562,159.493z M167.323,158.827l-13.611-21.117l11.354-17.271
	h-5.362l-9.875,15.053h-2.33v-32.547h-4.92v55.883h4.92v-18.271h2.33l11.688,18.271H167.323z M193.059,140.556v-5.51
	c0-5.721-0.926-9.701-2.773-11.945s-5.115-3.365-9.803-3.365c-4.732,0-8.037,1.127-9.91,3.383
	c-1.875,2.256-2.812,6.231-2.812,11.928v9.1c0,5.693,0.945,9.676,2.83,11.945c1.887,2.27,5.16,3.402,9.82,3.402
	c4.461,0,7.676-0.884,9.635-2.646c1.959-1.764,2.939-4.643,2.939-8.635v-1.295h-4.548v1.22c0,2.466-0.562,4.153-1.685,5.065
	c-1.121,0.916-3.235,1.37-6.344,1.37c-2.957,0-4.933-0.61-5.918-1.831c-0.986-1.221-1.478-4.062-1.478-8.524v-3.662H193.059
	L193.059,140.556z M173.014,133.382c0-3.525,0.535-5.922,1.607-7.193c1.071-1.27,3.051-1.906,5.936-1.906
	c2.91,0,4.902,0.631,5.975,1.889c1.071,1.256,1.607,3.661,1.607,7.211v2.404h-15.125V133.382z M215.635,122.192
	c-1.243-1.637-3.271-2.457-6.082-2.457c-2.146,0-3.953,0.461-5.418,1.387c-1.469,0.924-2.658,2.361-3.57,4.309v-4.992h-4.548v38.39
	h4.919v-24.227c0-3.944,0.549-6.7,1.646-8.267c1.096-1.564,2.938-2.348,5.528-2.348c1.75,0,2.996,0.557,3.733,1.666
	c0.74,1.107,1.111,3.008,1.111,5.695v1.812h4.549v-2.96C217.504,126.503,216.881,123.833,215.635,122.192z M190.946,177.738
	c-4.732,0-8.037,1.128-9.91,3.384c-1.877,2.256-2.812,6.231-2.812,11.928v9.101c0,5.694,0.942,9.677,2.83,11.946
	c1.885,2.27,5.159,3.402,9.817,3.402c4.463,0,7.676-0.883,9.635-2.646c1.961-1.764,2.941-4.643,2.941-8.634v-1.296h-4.549v1.22
	c0,2.466-0.561,4.153-1.684,5.065c-1.121,0.916-3.236,1.371-6.344,1.371c-2.957,0-4.933-0.61-5.918-1.832
	c-0.986-1.221-1.478-4.062-1.478-8.524v-3.663h20.045v-5.51c0-5.721-0.927-9.701-2.772-11.946
	C198.899,178.859,195.631,177.738,190.946,177.738z M198.602,193.79h-15.125v-2.403c0-3.525,0.535-5.923,1.607-7.194
	c1.072-1.27,3.051-1.904,5.936-1.904c2.91,0,4.902,0.629,5.975,1.889c1.07,1.256,1.607,3.66,1.607,7.211V193.79z M86.173,195.381
	c-0.813-0.123-1.91-0.283-3.292-0.481c-5.055-0.739-7.58-2.12-7.58-4.144v-3.697c0-1.775,0.398-3.016,1.2-3.719
	c0.801-0.702,2.213-1.055,4.236-1.055h2.515c1.849,0,3.145,0.364,3.882,1.092c0.74,0.729,1.111,2.028,1.111,3.902v1.071h4.844
	v-1.588c0-3.452-0.676-5.819-2.033-7.104c-1.357-1.279-3.809-1.922-7.361-1.922h-3.402c-3.428,0-5.979,0.721-7.656,2.163
	c-1.677,1.442-2.515,3.656-2.515,6.64v5.141c0,2.22,0.519,3.811,1.554,4.771c1.035,0.961,3.786,1.824,8.248,2.59
	c0.418,0.072,1.011,0.172,1.775,0.295c4.462,0.715,6.694,2.429,6.694,5.141v3.627c0,1.799-0.407,3.062-1.219,3.791
	c-0.814,0.729-2.232,1.089-4.256,1.089h-3.403c-1.947,0-3.268-0.369-3.955-1.108c-0.691-0.739-1.035-2.391-1.035-4.957v-2.364
	h-4.847v3.956c0,3.428,0.679,5.781,2.034,7.066c1.356,1.279,3.811,1.922,7.36,1.922h4.327c3.428,0,5.975-0.724,7.639-2.164
	c1.665-1.442,2.496-3.644,2.496-6.604v-5.143c0-2.536-0.568-4.438-1.701-5.692C90.699,196.638,88.811,195.799,86.173,195.381z
	 M136.397,177.59c-3.922,0-6.781,0.766-8.581,2.291c-1.8,1.529-2.699,3.947-2.699,7.25v1.738h5.064v-1.812
	c0-1.726,0.457-2.965,1.369-3.718c0.912-0.752,2.454-1.129,4.625-1.129c2.637,0,4.393,0.507,5.268,1.518s1.312,3.157,1.312,6.438
	v5.992c-0.887-1.138-2.026-1.976-3.42-2.517c-1.393-0.543-3.124-0.813-5.196-0.813c-3.328,0-5.856,0.832-7.582,2.495
	c-1.726,1.665-2.589,4.113-2.589,7.343v5.141c0,3.305,0.789,5.758,2.368,7.361c1.578,1.603,3.97,2.403,7.174,2.403
	c2.441,0,4.376-0.327,5.806-0.981c1.432-0.65,2.578-1.729,3.439-3.234v3.477h4.848V188.87c0-4.289-0.811-7.242-2.422-8.856
	C143.567,178.396,140.637,177.59,136.397,177.59z M141.204,211.229c-1.133,1.22-3.068,1.832-5.805,1.832
	c-2.244,0-3.853-0.561-4.828-1.684c-0.974-1.121-1.461-3.016-1.461-5.679c0-3.304,0.47-5.505,1.406-6.601
	c0.938-1.1,2.773-1.646,5.51-1.646c2.688,0,4.506,0.506,5.456,1.517s1.425,2.973,1.425,5.881
	C142.905,207.879,142.338,210.006,141.204,211.229z M110.731,177.738c-2.097,0-3.914,0.421-5.455,1.257
	c-1.542,0.84-2.929,2.17-4.162,3.994v-4.548h-4.623v52.631h4.92v-18.42c1.035,1.628,2.323,2.843,3.865,3.644
	c1.541,0.803,3.309,1.203,5.308,1.203c3.698,0,6.36-1.252,7.988-3.754c1.628-2.504,2.441-6.699,2.441-12.594v-5.918
	c0-6.412-0.789-10.931-2.368-13.557C117.067,179.051,114.43,177.738,110.731,177.738z M115.799,200.928
	c0,4.465-0.494,7.558-1.479,9.283c-0.986,1.727-2.688,2.588-5.104,2.588c-2.884,0-4.907-0.854-6.065-2.568
	c-1.16-1.713-1.738-4.888-1.738-9.523v-6.14c0-4.662,0.578-7.848,1.738-9.562c1.158-1.715,3.182-2.569,6.065-2.569
	c2.417,0,4.118,0.862,5.104,2.589c0.985,1.727,1.479,4.831,1.479,9.32V200.928z M170.198,204.183c0,3.354-0.512,5.604-1.535,6.751
	c-1.021,1.146-2.914,1.719-5.674,1.719c-2.812,0-4.711-0.642-5.699-1.923c-0.981-1.283-1.479-4.118-1.479-8.507v-9.174
	c0-4.412,0.479-7.25,1.428-8.506c0.947-1.256,2.794-1.887,5.525-1.887c2.469,0,4.204,0.581,5.219,1.738
	c1.013,1.158,1.515,3.133,1.515,5.918v0.703h4.922v-1.926c0-4.041-0.865-6.944-2.592-8.707c-1.726-1.764-4.572-2.646-8.541-2.646
	c-4.734,0-8.039,1.128-9.912,3.383c-1.873,2.258-2.812,6.232-2.812,11.93v9.1c0,5.721,0.939,9.709,2.812,11.964
	c1.873,2.257,5.151,3.386,9.838,3.386c4.24,0,7.309-1.043,9.211-3.125c1.897-2.084,2.848-5.455,2.848-10.117v-1.59h-5.07v1.517
	H170.198z"/>
</svg>
