<?xml version="1.0" encoding="utf-8"?>
<!-- Generator: Adobe Illustrator 22.1.0, SVG Export Plug-In . SVG Version: 6.00 Build 0)  -->
<svg version="1.1" id="Tokyo_Tower" xmlns="http://www.w3.org/2000/svg" xmlns:xlink="http://www.w3.org/1999/xlink" x="0px"
	 y="0px" width="612px" height="792px" viewBox="0 0 612 792" style="enable-background:new 0 0 612 792;" xml:space="preserve">
<style type="text/css">
	.st0{fill:#FFFFFF;stroke:#000000;stroke-miterlimit:10;}
	.st1{fill:none;stroke:#000000;stroke-miterlimit:10;}
</style>
<path id="Antenna_2_" class="st0" d="M241.7,31l4.8,156.8c0,0,0.2,8.3-7.3,8.3h-2.8c-7.5,0-7.3-8.3-7.3-8.3L233.9,31
	c0.3-2.1,2.2-3.5,4.2-3.4C239.8,27.8,241.4,29.1,241.7,31z"/>
<path id="Top_1_" class="st1" d="M222.7,202.8l-16.9,161.4c0,0-2.3,13.5,1.1,17.7c0,0,3,6.8,30.1,8.6h1.6
	c27.1-1.9,30.1-8.6,30.1-8.6c3.4-4.1,1.1-17.7,1.1-17.7l-16.9-161.4c-5.6,8.1-14.8,7.5-14.8,7.5C237.5,210.3,228.3,211,222.7,202.8z
	"/>
<path id="Base" class="st0" d="M312.7,612.9c-35.8-90.2-34.8-161.1-34.8-161.1c-8.5-2.6-38.8-4.1-40.1-4.1
	c-1.3,0.1-31.7,1.6-40.1,4.1c0,0,1,70.9-34.8,161.1c0,0-39.8,100.2-48.3,106.9l41.8-0.3c0,0,4.5-80.6,80.2-81.1h2.6
	c75.6,0.5,80.2,81.1,80.2,81.1l41.8,0.3C352.6,713,312.7,612.9,312.7,612.9 M237.8,622.4c-22,0-39.8-17.8-39.8-39.8
	s17.8-39.8,39.8-39.8s39.8,17.8,39.8,39.8S259.8,622.4,237.8,622.4"/>
<path id="Observation_Deck" class="st0" d="M171.9,389.4c15.2,4.8,37.6,10.1,65.1,10.2c28.2,0.1,51.2-5.3,66.7-10.2
	c-2.8,17.7-5.7,35.4-8.5,53.1c-13.2-4.3-32.9-9-57.1-9c-24.4,0-44.3,4.7-57.6,9C177.6,424.8,174.7,407.1,171.9,389.4z"/>
</svg>
