<?xml version="1.0" encoding="utf-8"?>
<!-- Generator: Adobe Illustrator 13.0.0, SVG Export Plug-In . SVG Version: 6.00 Build 14948)  -->
<!DOCTYPE svg PUBLIC "-//W3C//DTD SVG 1.1//EN" "http://www.w3.org/Graphics/SVG/1.1/DTD/svg11.dtd">
<svg version="1.1" id="Layer_1" xmlns="http://www.w3.org/2000/svg" xmlns:xlink="http://www.w3.org/1999/xlink" x="0px" y="0px"
	 width="562.497px" height="657.242px" viewBox="0 0 562.497 657.242" enable-background="new 0 0 562.497 657.242"
	 xml:space="preserve">
<path d="M33.631,24.111l39.607-0.208v35.854h21.68v29.185h-21.68v65.04c0,0-1.25,15.009,20.013,12.507v28.768
	c0,0-27.934,7.297-49.197-3.961c-6.241-3.304-10.006-13.55-10.423-25.641l0.208-76.296l-11.882-0.208V59.758h11.674V24.111z"/>
<path d="M161.235,98.805c0,0,0.001-0.022,0.003-0.057V98.74L161.235,98.805z"/>
<polygon points="283.088,117.295 304.769,59.204 268.914,59.204 248.537,112.075 248.537,0 209.571,0 210.428,194.423 
	248.537,194.423 248.537,124.889 248.625,125.077 271.693,194.286 311.717,194.286 "/>
<path d="M374.534,59.482l-12.578,111.386l-0.043,0.076l-11.561-111.74h-39.189l17.789,134.804h28.098l0.529,2.917
	c-2.084,24.183-29.186,15.844-29.186,15.844v27.1c5.004,5.003,29.186,3.752,29.186,3.752c30.02-0.417,35.855-49.333,35.855-49.333
	L413.168,59.76L374.534,59.482z"/>
<path d="M17.656,211.236v76.148l-0.521-0.55c3.686-12.766,13.978-17.481,30.878-17.481c25.037,0,35.888,14.41,35.888,44.897v5.573
	v86.483H65.96v-86.483v-0.522c0-20.579-4.349-33.37-19.719-33.37c-12.379,0-18.154,3.859-22.326,9.908
	c-4.173,6.052-6.259,16.409-6.259,34.417v76.051L0,406.497l0.069-195.239L17.656,211.236z"/>
<path d="M273.57,356.672l17.789-0.065l0.079,8.94c0,29.249-13.978,43.873-41.937,43.873c-17.943,0-29.191-5.03-35.573-13.86
	c-6.858-9.492-8.658-28.297-8.658-57.164c0-27.059,1.343-43.134,7.22-52.805c5.876-9.669,18.651-16.794,35.134-16.794
	c16.203,0,27.248,3.277,33.173,9.789c6.877,7.56,7.575,19.989,7.575,37.995l-17.235,0.14l0.071-4.865
	c0-10.575-1.459-14.59-4.387-18.691c-3.021-4.234-8.885-5.557-20.344-6.122c-10.975-0.541-14.1,2.425-18.419,8.693
	c-4.31,6.254-3.754,21.366-3.754,44.611c0,22.677-0.24,35.348,3.342,41.541c3.581,6.192,11.341,10.041,24.453,9.114
	c10.319-0.729,12.299-2.085,16.156-6.046C271.764,381.351,273.57,371.728,273.57,356.672"/>
<path d="M396.979,557.629l17.789-0.066l0.078,8.94c0,29.25-13.979,43.872-41.938,43.872c-17.943,0-29.189-5.029-35.572-13.86
	c-6.859-9.49-8.658-28.297-8.658-57.163c0-27.059,1.342-43.134,7.221-52.804c5.875-9.671,18.65-16.796,35.133-16.796
	c16.203,0,27.248,3.278,33.174,9.79c6.879,7.56,7.574,19.989,7.574,37.995l-17.234,0.14l0.068-4.865
	c0-10.574-1.457-14.59-4.387-18.691c-3.02-4.233-8.885-5.557-20.344-6.122c-10.975-0.54-14.1,2.427-18.42,8.694
	c-4.309,6.253-3.754,21.365-3.754,44.61c0,22.677-0.238,35.348,3.344,41.54c3.58,6.192,11.34,10.042,24.453,9.114
	c10.318-0.729,12.299-2.084,16.154-6.045C395.172,582.307,396.979,572.683,396.979,557.629"/>
<polygon points="319.182,211.792 319.182,324.714 326.706,324.714 361.188,272.536 380.415,272.536 340.178,332.546 388.147,406.17 
	367.563,406.17 326.805,342.739 319.182,342.739 319.182,406.17 301.782,406.17 301.709,211.792 "/>
<path d="M461.079,364.215l15.812-0.049l0.105,6.61c0,14.028-3.191,23.843-9.574,29.443c-6.385,5.601-17.584,8.4-33.596,8.4
	c-18.625,0-30.158-5.02-36.664-13.628c-6.959-9.203-7.898-28.059-7.898-57.148c0-26.925,0.939-46.069,7.949-54.34
	c7.066-8.334,17.299-14.14,34.369-14.14c18.969,0,28.559,4.169,36.633,12.305c6.672,6.722,9.51,24.854,9.51,50.555v10.591
	l-70.115,0.137c0,21.276-0.191,33.458,3.23,39.295c3.422,5.839,10.006,8.547,22.723,8.859c11.918,0.293,17.074-1.496,20.639-4.273
	c3.561-2.775,4.064-2.084,6.67-13.236L461.079,364.215z M460.038,325.337v-4.169c0-14.592-0.988-23.454-4.586-27.83
	c-3.6-4.379-10.553-7.285-22.473-7.291c-12.236-0.004-17.951,3.621-21.514,8.75c-3.562,5.133-3.855,13.531-3.855,30.854
	L460.038,325.337z"/>
<path d="M497.768,565.171l15.812-0.05l0.105,6.61c0,14.029-3.191,23.843-9.574,29.443c-6.387,5.602-17.584,8.401-33.598,8.401
	c-18.625,0-30.156-5.02-36.664-13.628c-6.959-9.203-7.896-28.06-7.896-57.148c0-26.925,0.938-46.069,7.949-54.341
	c7.066-8.332,17.297-14.14,34.367-14.14c18.971,0,28.561,4.17,36.635,12.305c6.67,6.722,9.51,24.854,9.51,50.556v10.591
	l-70.117,0.137c0,21.276-0.189,33.458,3.232,39.295c3.422,5.839,10.006,8.547,22.723,8.859c11.918,0.294,17.074-1.497,20.637-4.273
	c3.562-2.775,4.066-2.085,6.67-13.236L497.768,565.171z M496.725,526.293v-4.17c0-14.592-0.986-23.452-4.586-27.828
	c-3.598-4.381-10.553-7.286-22.471-7.293c-12.238-0.004-17.953,3.621-21.514,8.752c-3.562,5.132-3.857,13.529-3.857,30.853
	L496.725,526.293z"/>
<path d="M487.106,271.972l16.916-0.001l0.053,16.599l-0.291-0.199c5.77-12.862,17.471-20.449,30.736-19.743
	c21.027,1.118,27.836,13.146,27.836,39.059l0.141,9.243l-16.469,0.001l0.141-3.336c0.209-3.619-0.012-7.386-0.141-8.616
	c-1.459-13.828-3.477-19.181-14.533-19.773c-16.25-0.873-24.41,13.769-24.41,41.3v79.387h-19.607L487.106,271.972z"/>
<path d="M219.059,484.951c-5.701-9.199-14.585-13.195-30.096-13.195c-14.28,0-25.87,9.112-31.367,17.449v-15.442h-15.565v183.443
	h15.565V586.77c1.193,3.787,2.519,6.911,3.911,9.358c5.107,8.98,14.538,13.472,29.959,13.472c14.676,0,22.023-4.732,27.384-13.017
	c6.773-10.464,7.676-26.325,7.676-53.454C226.526,513.312,224.315,493.436,219.059,484.951 M204.393,583.043
	c-3.175,6.64-9.729,9.959-19.661,9.959c-10.435,0-17.381-3.438-20.838-10.311c-3.459-6.874-5.187-20.641-5.187-41.31
	c0-22.349,2.353-37.074,5.559-43.856c3.207-6.778,9.34-10.005,19.901-10.005c10.497,0,16.509,3.058,20.368,10.1
	c3.556,6.492,3.924,21.701,3.924,44.518C208.459,562.895,207.567,576.402,204.393,583.043"/>
<path d="M258.907,510.033l-17.511-0.277c0-15.747-0.138-23.904,7.07-30.502c5.488-5.021,17.547-8.41,32.398-8.41
	c16.136,0,26.431,3.497,32.103,10.145c5.67,6.648,6.637,19.413,6.637,38.085v89.253l-17.477-0.734v-14.177v0.559
	c-2.084,11.119-16.258,15.98-32.797,15.98c-24.439,0-32.662-13.366-32.662-40.809c0-16.313,1.623-28.151,7.091-34.374
	c5.469-6.225,14.871-10.98,29.185-10.98c17.012,0,25.946,2.479,29.322,11.814l-0.275-14.731c0-15.463,0.258-22.107-2.781-26.682
	s-8.64-6.95-18.898-6.95c-17.419,0-21.403,3.562-21.403,17.233C258.907,505.135,258.838,508.052,258.907,510.033 M277.681,541.42
	c-10.871,0-15.577,0.99-18.496,4.746c-3.744,4.816-4.307,11.117-4.307,21.678c0,10.939,0.417,13.62,4.029,19.458
	c2.523,4.078,7.331,6.596,17.256,6.596c19.981,0,26.38-8.799,26.38-25.772c0-10.654,0.418-15.985-3.057-20.289
	C296.127,543.672,288.887,541.42,277.681,541.42"/>
<path d="M112.985,508.644c0,0,1.39-10.84-3.613-16.677c0,0-2.501-5.836-18.623-4.446c0,0-15.843-0.278-18.622,3.612
	c0,0-3.892,4.169-4.169,16.955c0,0-0.833,13.62,5.28,16.397c0,0,10.134,4.868,16.826,5.771c0.185,0.024,0.368,0.048,0.546,0.064
	c6.671,0.695,17.094,2.363,22.236,3.894c0,0,9.589,2.917,11.813,6.112c0,0,5.698,3.894,6.81,17.095v22.651
	c0,0,0.555,14.037-7.366,21.263c0,0-7.226,6.812-22.375,8.2H76.572c0,0-13.618-0.138-20.984-6.531c0,0-6.252-5.003-7.088-17.787
	V564.37h16.955v10.562c0,0,0.277,12.508,2.501,13.759c0,0,3.075,4.946,12.371,5.137c0.181,0.004,0.366,0.006,0.554,0.006h14.592
	c0,0,11.951,0,14.453-4.587c0,0,2.502-1.944,3.197-10.282v-13.343c0,0,0.417-8.896-4.865-12.091c0,0-5.003-4.588-17.094-6.811
	c0,0-16.815-2.778-25.015-5.143c0,0-8.339-1.246-13.342-8.195c0,0-2.919-3.334-2.919-16.12V502.53c0,0-0.694-15.424,7.505-22.651
	c8.199-7.227,18.901-8.338,24.598-8.338h17.094c0,0,14.453-0.557,21.402,4.863c6.949,5.42,9.172,12.646,9.311,31.963
	L112.985,508.644z"/>
<path d="M201.137,151.575l-0.041-48.038c2.919-49.754-41.277-46.417-41.277-46.417l-18.345,0.277
	c-46.278-1.667-42.109,44.75-42.109,44.75l0.042,48.039c-2.476,42.189,28.924,46.204,38.529,46.449l-6.399,61.092
	c0,0-1.25,7.505,0.626,9.797c0,0,1.667,3.752,16.677,4.795h0.912c15.009-1.043,16.676-4.795,16.676-4.795
	c1.876-2.292,0.626-9.797,0.626-9.797l-6.427-61.369C205.203,196.905,201.137,151.575,201.137,151.575 M139.468,99.106
	c0.042-11.528,6.425-11.742,6.425-11.742l8.843,0.014c7.049,0.493,6.553,10.571,6.502,11.371l0.056,57.401
	c-0.042,11.528-6.427,10.909-6.427,10.909l-8.841-0.016c-7.342,0.321-6.532-11.014-6.532-11.014L139.468,99.106z"/>
<path d="M149.435,278.086c0,0-16.121,0.558-24.459-2.223c0,0-5.837-1.389-12.23-4.17l4.726,29.462c0,0,19.456-6.113,31.129-5.003
	h1.39c11.674-1.11,31.13,5.003,31.13,5.003l4.726-29.462c-6.393,2.781-12.23,4.17-12.23,4.17c-8.339,2.78-24.46,2.223-24.46,2.223"
	/>
<path d="M149.262,304.004c0,0,0.02,0.001,0.035,0.001c0.016,0,0.035-0.001,0.035-0.001H149.262z"/>
<path d="M190.884,395.658c-19.872-50.032-19.317-89.361-19.317-89.361c-4.69-1.426-21.54-2.255-22.27-2.292
	c-0.73,0.037-17.58,0.866-22.271,2.292c0,0,0.556,39.329-19.317,89.361c0,0-22.098,55.588-26.822,59.34l23.209-0.137
	c0,0,2.501-44.751,44.471-45.027h1.458c41.971,0.276,44.473,45.027,44.473,45.027l23.209,0.137
	C212.981,451.246,190.884,395.658,190.884,395.658 M149.296,400.938c-12.203,0-22.097-9.893-22.097-22.098
	c0-12.202,9.894-22.097,22.097-22.097c12.205,0,22.097,9.895,22.097,22.097C171.393,391.046,161.501,400.938,149.296,400.938"/>
<path d="M518.79,103.537c2.92-49.754-41.275-46.418-41.275-46.418l-18.346,0.277c-46.277-1.667-42.109,44.75-42.109,44.75
	l0.041,48.039c-2.918,49.754,41.277,46.416,41.277,46.416l18.344-0.276c46.279,1.668,42.111-44.751,42.111-44.751L518.79,103.537z
	 M472.559,167.059l-8.84-0.016c-7.342,0.321-6.531-11.013-6.531-11.013l-0.023-56.925c0.039-11.527,6.422-11.742,6.422-11.742
	l8.844,0.015c7.068,0.493,6.551,10.619,6.502,11.377l0.057,57.396C478.946,167.679,472.559,167.059,472.559,167.059"/>
<path d="M478.928,98.805c0,0,0.002-0.021,0.002-0.05V98.74L478.928,98.805z"/>
</svg>
